<?xml version="1.0" encoding="UTF-8" standalone="no"?>
<!-- Created with Inkscape (http://www.inkscape.org/) -->

<svg
   xmlns:dc="http://purl.org/dc/elements/1.1/"
   xmlns:cc="http://creativecommons.org/ns#"
   xmlns:rdf="http://www.w3.org/1999/02/22-rdf-syntax-ns#"
   xmlns:svg="http://www.w3.org/2000/svg"
   xmlns="http://www.w3.org/2000/svg"
   xmlns:sodipodi="http://sodipodi.sourceforge.net/DTD/sodipodi-0.dtd"
   xmlns:inkscape="http://www.inkscape.org/namespaces/inkscape"
   width="119.62577mm"
   height="119.62577mm"
   viewBox="0 0 119.62577 119.62577"
   version="1.1"
   id="svg8"
   inkscape:version="0.92.2 (5c3e80d, 2017-08-06)"
   sodipodi:docname="wine.svg"
   inkscape:export-filename="/home/kyle/ExtraDrive/Development/AlcoholLabelProject/src/main/resources/images/wine.png"
   inkscape:export-xdpi="21.232883"
   inkscape:export-ydpi="21.232883">
  <defs
     id="defs2" />
  <sodipodi:namedview
     id="base"
     pagecolor="#ffffff"
     bordercolor="#666666"
     borderopacity="1.0"
     inkscape:pageopacity="0.0"
     inkscape:pageshadow="2"
     inkscape:zoom="2.8730745"
     inkscape:cx="226.06445"
     inkscape:cy="75.562778"
     inkscape:document-units="mm"
     inkscape:current-layer="layer1"
     showgrid="false"
     showguides="true"
     inkscape:guide-bbox="true"
     inkscape:measure-start="0,0"
     inkscape:measure-end="0,0"
     fit-margin-top="0"
     fit-margin-left="0"
     fit-margin-right="0"
     fit-margin-bottom="0"
     inkscape:window-width="1920"
     inkscape:window-height="1011"
     inkscape:window-x="0"
     inkscape:window-y="33"
     inkscape:window-maximized="1" />
  <metadata
     id="metadata5">
    <rdf:RDF>
      <cc:Work
         rdf:about="">
        <dc:format>image/svg+xml</dc:format>
        <dc:type
           rdf:resource="http://purl.org/dc/dcmitype/StillImage" />
        <dc:title></dc:title>
      </cc:Work>
    </rdf:RDF>
  </metadata>
  <g
     inkscape:label="Layer 1"
     inkscape:groupmode="layer"
     id="layer1"
     transform="translate(-35.914602,-53.22776)">
    <path
       style="fill:#008000;fill-opacity:1;stroke:none;stroke-width:0.31124768px;stroke-linecap:butt;stroke-linejoin:miter;stroke-opacity:1"
       d="m 59.07081,53.227758 c 0,0 1.159817,21.673417 5.30562,30.356804 4.53907,9.507072 12.181666,16.118128 19.803441,20.408058 1.526103,0.85896 3.833836,1.3702 5.987232,1.67638 0.109032,1.65222 2.678483,41.18689 0.08165,61.0371 -0.152993,1.16947 -0.915704,3.41788 -0.915704,3.41788 l -23.94014,1.20251 -0.133842,1.52704 30.46894,-0.53485 30.468423,0.53485 -0.13333,-1.52704 -23.94065,-1.20251 c 0,0 -0.76272,-2.24841 -0.91571,-3.41788 -2.596826,-19.85017 -0.0279,-59.38474 0.0811,-61.0371 2.1534,-0.30618 4.46113,-0.81742 5.98723,-1.67638 7.62178,-4.28993 15.26489,-10.900986 19.80396,-20.408058 4.14581,-8.683387 5.3051,-30.356804 5.3051,-30.356804 H 95.727489 Z"
       id="path821"
       inkscape:connector-curvature="0" />
  </g>
</svg>
